<?xml version="1.0" encoding="utf-8"?><svg xmlns="http://www.w3.org/2000/svg" xmlns:xlink="http://www.w3.org/1999/xlink" width="1717" height="1230" preserveAspectRatio="xMidYMid" viewBox="0 0 1717 1230" style="z-index:1;margin-right:-2px;display:block;background-repeat-y:initial;background-repeat-x:initial;animation-play-state:paused" ><g transform="translate(858.5,615) scale(1,1) translate(-858.5,-615)" style="transform:matrix(1, 0, 0, 1, 0, 0);animation-play-state:paused" ><defs style="animation-play-state:paused" ><path id="path-8ey2q2yddt7-1" d="M-35 -35L35 -35L35 35L-35 35Z" fill="none" stroke="inherit" stroke-width="4.333333333333334" transform="scale(0.3)" style="transform:matrix(0.3, 0, 0, 0.3, 0, 0);animation-play-state:paused" ></path>

  
<path id="path-8ey2q2yddt7-2" d="M0 -37A37 37 0 0 1 0 37A37 37 0 0 1 0 -37" fill="none" stroke="inherit" stroke-width="4.333333333333334" transform="scale(0.3)" style="transform:matrix(0.3, 0, 0, 0.3, 0, 0);animation-play-state:paused" ></path>

  
<path id="path-8ey2q2yddt7-3" d="M0 -34.641L40 34.641L-40 34.641Z" fill="none" stroke="inherit" stroke-width="4.333333333333334" transform="scale(0.3)" style="transform:matrix(0.3, 0, 0, 0.3, 0, 0);animation-play-state:paused" ></path></defs>
<path id="path0" d="M 80.40179754518748 1073.0468838713743
c 0 46.55939535419881 -11.392192480282686 13.373443346418808 -24.765635826701494 13.373443346418808
S 30.870525891784485 1119.6062792255732 30.870525891784485 1073.0468838713743
s 11.392192480282686 -13.373443346418808 24.765635826701494 -13.373443346418808
S 80.40179754518748 1026.4874885171755 80.40179754518748 1073.0468838713743
z" fill="none" stroke="none" style="animation-play-state:paused" ></path>


<use xlink:href="#path-8ey2q2yddt7-1" x="0" y="0" stroke="#ddeeff" transform="translate(51.963356018066406 1087.1907958984375)" style="animation-play-state:paused" ></use>
<path id="path1" d="M 157.4479600819874 711.3726637230445
c 0 28.897934235150046 -7.070771142643095 8.300470471798418 -15.371241614441512 8.300470471798418
S 126.70547685310436 740.2705979581946 126.70547685310436 711.3726637230445
s 7.070771142643095 -8.300470471798418 15.371241614441512 -8.300470471798418
S 157.4479600819874 682.4747294878945 157.4479600819874 711.3726637230445
z" fill="none" stroke="none" style="animation-play-state:paused" ></path>


<use xlink:href="#path-8ey2q2yddt7-1" x="0" y="0" stroke="#bbddff" transform="translate(138.03440856933594 721.0789184570312)" style="animation-play-state:paused" ></use>
<path id="path2" d="M 251.78476045871366 522.8171127210807
c 0 28.754185551387355 -7.035598592360736 8.25918095624956 -15.294779548610295 8.25918095624956
S 221.19520136149305 551.571298272468 221.19520136149305 522.8171127210807
s 7.035598592360736 -8.25918095624956 15.294779548610295 -8.25918095624956
S 251.78476045871366 494.0629271696933 251.78476045871366 522.8171127210807
z" fill="none" stroke="none" style="animation-play-state:paused" ></path>


<use xlink:href="#path-8ey2q2yddt7-3" x="0" y="0" stroke="#aabbcc" transform="translate(240.79922485351562 532.6632080078125)" style="animation-play-state:paused" ></use>
<path id="path3" d="M 385.50780284844734 782.9536015070078
c 0 28.06943070539118 -6.86805219387231 8.06249605367619 -14.9305482475485 8.06249605367619
S 355.6467063533504 811.0230322123989 355.6467063533504 782.9536015070078
s 6.86805219387231 -8.06249605367619 14.9305482475485 -8.06249605367619
S 385.50780284844734 754.8841708016166 385.50780284844734 782.9536015070078
z" fill="none" stroke="none" style="animation-play-state:paused" ></path>


<use xlink:href="#path-8ey2q2yddt7-3" x="0" y="0" stroke="#bbddff" transform="translate(357.2231140136719 796.8738403320312)" style="animation-play-state:paused" ></use>
<path id="path4" d="M 424.2823574327721 627.067064685358
c 0 36.451251420932984 -8.918923220015516 10.470040301757347 -19.388963521772865 10.470040301757347
S 385.5044303892263 663.518316106291 385.5044303892263 627.067064685358
s 8.918923220015516 -10.470040301757347 19.388963521772865 -10.470040301757347
S 424.2823574327721 590.615813264425 424.2823574327721 627.067064685358
z" fill="none" stroke="none" style="animation-play-state:paused" ></path>


<use xlink:href="#path-8ey2q2yddt7-2" x="0" y="0" stroke="#bbddff" transform="translate(417.3487854003906 645.2161254882812)" style="animation-play-state:paused" ></use>
<path id="path5" d="M 570.5923081875329 471.8944793279876
c 0 58.97836621705132 -14.430876840342341 16.94059455170623 -31.37147139204857 16.94059455170623
S 507.8493654034358 530.8728455450389 507.8493654034358 471.8944793279876
s 14.430876840342341 -16.94059455170623 31.37147139204857 -16.94059455170623
S 570.5923081875329 412.9161131109363 570.5923081875329 471.8944793279876
z" fill="none" stroke="none" style="animation-play-state:paused" ></path>


<use xlink:href="#path-8ey2q2yddt7-2" x="0" y="0" stroke="#ddeeff" transform="translate(569.4376831054688 493.6742248535156)" style="animation-play-state:paused" ></use>
<path id="path6" d="M 646.78002487354 797.8085020245708
c 0 60.02700266008333 -14.687458097679963 17.241798636406916 -31.929256734086877 17.241798636406916
S 582.9215114053663 857.8355046846541 582.9215114053663 797.8085020245708
s 14.687458097679963 -17.241798636406916 31.929256734086877 -17.241798636406916
S 646.78002487354 737.7814993644874 646.78002487354 797.8085020245708
z" fill="none" stroke="none" style="animation-play-state:paused" ></path>


<use xlink:href="#path-8ey2q2yddt7-2" x="0" y="0" stroke="#ddeeff" transform="translate(637.0093994140625 828.7861328125)" style="animation-play-state:paused" ></use>
<path id="path7" d="M 748.1246403996972 534.758678117961
c 0 64.63299549626659 -15.814456344831184 18.56479657871487 -34.379252923546055 18.56479657871487
S 679.3661345526052 599.3916736142277 679.3661345526052 534.758678117961
s 15.814456344831184 -18.56479657871487 34.379252923546055 -18.56479657871487
S 748.1246403996972 470.12568262169447 748.1246403996972 534.758678117961
z" fill="none" stroke="none" style="animation-play-state:paused" ></path>


<use xlink:href="#path-8ey2q2yddt7-3" x="0" y="0" stroke="#aabbcc" transform="translate(698.580810546875 561.14599609375)" style="animation-play-state:paused" ></use>
<path id="path8" d="M 841.5821441305833 290.0009255992
c 0 33.52753663595245 -8.203546198158577 9.630249884794853 -17.83379608295343 9.630249884794853
S 805.9145519646764 323.52846223515246 805.9145519646764 290.0009255992
s 8.203546198158577 -9.630249884794853 17.83379608295343 -9.630249884794853
S 841.5821441305833 256.47338896324754 841.5821441305833 290.0009255992
z" fill="none" stroke="none" style="animation-play-state:paused" ></path>


<use xlink:href="#path-8ey2q2yddt7-3" x="0" y="0" stroke="#aabbcc" transform="translate(834.8152465820312 306.401123046875)" style="animation-play-state:paused" ></use>
<path id="path9" d="M 930.6038454063836 806.0284751715627
c 0 61.85902647277714 -15.135719243339086 17.768018242180666 -32.903737485519756 17.768018242180666
S 864.7963704353441 867.8875016443399 864.7963704353441 806.0284751715627
s 15.135719243339086 -17.768018242180666 32.903737485519756 -17.768018242180666
S 930.6038454063836 744.1694486987856 930.6038454063836 806.0284751715627
z" fill="none" stroke="none" style="animation-play-state:paused" ></path>


<use xlink:href="#path-8ey2q2yddt7-1" x="0" y="0" stroke="#ddeeff" transform="translate(865.7413940429688 826.943359375)" style="animation-play-state:paused" ></use>
<path id="path10" d="M 1023.9847621305097 673.6606065057687
c 0 58.176528391204585 -14.234682478698993 16.71027943151621 -30.944961910215202 16.71027943151621
S 962.0948383100794 731.8371348969732 962.0948383100794 673.6606065057687
s 14.234682478698993 -16.71027943151621 30.944961910215202 -16.71027943151621
S 1023.9847621305097 615.4840781145641 1023.9847621305097 673.6606065057687
z" fill="none" stroke="none" style="animation-play-state:paused" ></path>


<use xlink:href="#path-8ey2q2yddt7-2" x="0" y="0" stroke="#aabbcc" transform="translate(1023.9562377929688 677.94580078125)" style="animation-play-state:paused" ></use>
<path id="path11" d="M 1125.3564172554688 693.2134578436554
c 0 39.66503246959325 -9.705273902134518 11.39314762424487 -21.098421526379386 11.39314762424487
S 1083.1595742027102 732.8784903132487 1083.1595742027102 693.2134578436554
s 9.705273902134518 -11.39314762424487 21.098421526379386 -11.39314762424487
S 1125.3564172554688 653.5484253740622 1125.3564172554688 693.2134578436554
z" fill="none" stroke="none" style="animation-play-state:paused" ></path>


<use xlink:href="#path-8ey2q2yddt7-1" x="0" y="0" stroke="#ddeeff" transform="translate(1125.331787109375 696.4962158203125)" style="animation-play-state:paused" ></use>
<path id="path12" d="M 1206.3938893451548 603.3762008945713
c 0 21.39062038132707 -5.23387519968641 6.1441143648492655 -11.377989564535675 6.1441143648492655
S 1183.6379102160834 624.7668212758983 1183.6379102160834 603.3762008945713
s 5.23387519968641 -6.1441143648492655 11.377989564535675 -6.1441143648492655
S 1206.3938893451548 581.9855805132443 1206.3938893451548 603.3762008945713
z" fill="none" stroke="none" style="animation-play-state:paused" ></path>


<use xlink:href="#path-8ey2q2yddt7-2" x="0" y="0" stroke="#bbddff" transform="translate(1206.0723876953125 610.5650634765625)" style="animation-play-state:paused" ></use>
<path id="path13" d="M 1301.226643400508 693.1240529497305
c 0 33.61753473220367 -8.22556700894345 9.656100401803183 -17.881667410746633 9.656100401803183
S 1265.463308579015 726.7415876819342 1265.463308579015 693.1240529497305
s 8.22556700894345 -9.656100401803183 17.881667410746633 -9.656100401803183
S 1301.226643400508 659.5065182175268 1301.226643400508 693.1240529497305
z" fill="none" stroke="none" style="animation-play-state:paused" ></path>


<use xlink:href="#path-8ey2q2yddt7-2" x="0" y="0" stroke="#bbddff" transform="translate(1286.3944091796875 703.5067138671875)" style="animation-play-state:paused" ></use>
<path id="path14" d="M 1437.5601977715148 203.65932821955724
c 0 60.594879013217394 -14.82640656706383 17.404912056987975 -32.23131862405181 17.404912056987975
S 1373.0975605234114 264.25420723277466 1373.0975605234114 203.65932821955724
s 14.82640656706383 -17.404912056987975 32.23131862405181 -17.404912056987975
S 1437.5601977715148 143.06444920633984 1437.5601977715148 203.65932821955724
z" fill="none" stroke="none" style="animation-play-state:paused" ></path>


<use xlink:href="#path-8ey2q2yddt7-2" x="0" y="0" stroke="#bbddff" transform="translate(1415.1236572265625 224.9000701904297)" style="animation-play-state:paused" ></use>
<path id="path15" d="M 1466.37999444971 877.0958371271706
c 0 44.81078461134876 -10.96434091554278 12.871182813898047 -23.835523729440826 12.871182813898047
S 1418.7089469908283 921.9066217385193 1418.7089469908283 877.0958371271706
s 10.96434091554278 -12.871182813898047 23.835523729440826 -12.871182813898047
S 1466.37999444971 832.2850525158219 1466.37999444971 877.0958371271706
z" fill="none" stroke="none" style="animation-play-state:paused" ></path>


<use xlink:href="#path-8ey2q2yddt7-3" x="0" y="0" stroke="#ddeeff" transform="translate(1444.9300537109375 890.31396484375)" style="animation-play-state:paused" ></use>
<path id="path16" d="M 1563.5248308504256 1139.008065724164
c 0 40.46926824428699 -9.90205499594256 11.62415151697605 -21.526206512918613 11.62415151697605
S 1520.4724178245883 1179.477333968451 1520.4724178245883 1139.008065724164
s 9.90205499594256 -11.62415151697605 21.526206512918613 -11.62415151697605
S 1563.5248308504256 1098.538797479877 1563.5248308504256 1139.008065724164
z" fill="none" stroke="none" style="animation-play-state:paused" ></path>


<use xlink:href="#path-8ey2q2yddt7-2" x="0" y="0" stroke="#aabbcc" transform="translate(1554.840576171875 1158.394287109375)" style="animation-play-state:paused" ></use>
<path id="path17" d="M 1728.853960913643 471.569251195788
c 0 61.94252375194802 -15.156149428668131 17.792001503219115 -32.94815093188725 17.792001503219115
S 1662.9576590498684 533.5117749477361 1662.9576590498684 471.569251195788
s 15.156149428668131 -17.792001503219115 32.94815093188725 -17.792001503219115
S 1728.853960913643 409.62672744383997 1728.853960913643 471.569251195788
z" fill="none" stroke="none" style="animation-play-state:paused" ></path>


<use xlink:href="#path-8ey2q2yddt7-3" x="0" y="0" stroke="#ddeeff" transform="translate(1710.7059326171875 497.08538818359375)" style="animation-play-state:paused" ></use></g></svg>